<?xml version="1.0" encoding="UTF-8" standalone="no"?>
<!-- Created with Inkscape (http://www.inkscape.org/) -->

<svg
   xmlns:dc="http://purl.org/dc/elements/1.1/"
   xmlns:cc="http://creativecommons.org/ns#"
   xmlns:rdf="http://www.w3.org/1999/02/22-rdf-syntax-ns#"
   xmlns:svg="http://www.w3.org/2000/svg"
   xmlns="http://www.w3.org/2000/svg"
   xmlns:sodipodi="http://sodipodi.sourceforge.net/DTD/sodipodi-0.dtd"
   xmlns:inkscape="http://www.inkscape.org/namespaces/inkscape"
   width="297mm"
   height="210mm"
   viewBox="0 0 297 210"
   version="1.1"
   id="svg8"
   inkscape:version="0.92.4 (5da689c313, 2019-01-14)"
   sodipodi:docname="bg-layer-3.svg">
  <defs
     id="defs2" />
  <sodipodi:namedview
     id="base"
     pagecolor="#ffffff"
     bordercolor="#666666"
     borderopacity="1.0"
     inkscape:pageopacity="0.0"
     inkscape:pageshadow="2"
     inkscape:zoom="1.0369147"
     inkscape:cx="561.25984"
     inkscape:cy="396.85039"
     inkscape:document-units="mm"
     inkscape:current-layer="layer2"
     showgrid="false"
     inkscape:window-width="1920"
     inkscape:window-height="1046"
     inkscape:window-x="-11"
     inkscape:window-y="-11"
     inkscape:window-maximized="1"
     inkscape:snap-page="true"
     inkscape:snap-global="true" />
  <metadata
     id="metadata5">
    <rdf:RDF>
      <cc:Work
         rdf:about="">
        <dc:format>image/svg+xml</dc:format>
        <dc:type
           rdf:resource="http://purl.org/dc/dcmitype/StillImage" />
        <dc:title />
      </cc:Work>
    </rdf:RDF>
  </metadata>
  <g
     inkscape:groupmode="layer"
     id="layer2"
     inkscape:label="Layer 1"
     style="display:inline">
    <path
       style="opacity:1;vector-effect:none;fill:#87aeb5;fill-opacity:1;stroke:none;stroke-width:18.27428818;stroke-linecap:round;stroke-linejoin:miter;stroke-miterlimit:4;stroke-dasharray:none;stroke-dashoffset:0;stroke-opacity:1;paint-order:stroke fill markers"
       d="M 883.83203,-0.1171875 C 883.57482,-0.12309499 883.31856,-0.08470316 883.06445,0 h 1.42578 c -0.22057,-0.06934274 -0.43979,-0.11217103 -0.6582,-0.1171875 z M 884.49023,0 c 16.14357,5.0751982 37.97601,181.19074 51.94141,346.11523 7.13295,84.23686 7.22948,159.58995 15.06055,191.48047 13.91189,56.65363 24.87085,92.49056 33.31836,115.19727 -33.61421,-0.82004 -81.29511,-3.17832 -129.54688,1.29687 -24.21461,2.24582 -59.10513,6.90367 -95.49414,11.89454 C 750.287,566.18415 736.0025,396.33762 737.79297,294.52539 739.52815,195.85732 733.79883,0 733.79883,0 h -42.10742 c 0,0 -1.21339,42.257027 -0.42774,72.289062 1.54001,58.866938 -11.8838,140.535568 -7.95898,253.554688 3.30073,95.04777 12.94161,201.4924 9.48047,272.82422 -1.01402,20.89812 -4.58034,50.40967 -8.35938,77.55859 -34.72756,4.5407 -64.38065,7.9264 -79.24414,7.95703 -31.51323,0.0651 -58.31868,-0.78603 -81.49609,-2.26953 C 518.42561,643.6634 515.47976,569.0355 499.73242,469.08203 434.43746,54.633392 460.09514,1.6544039 462.60938,0 h -29.23047 c 0,0 -3.56614,29.806508 -7.62891,66.798828 -0.17991,1.638225 -1.27719,14.29018 -27.7832,-3.152344 C 376.40305,49.456256 347.98467,9.1794573 331.38086,0 h -13.33398 c -1.21092,11.541676 73.04474,98.868892 94.16406,132.09961 3.64017,5.72773 7.70114,35.8469 7.52539,37.69531 -2.55549,26.898 -6.31302,23.48439 -6.07227,32.68946 1.53997,58.86693 7.40331,10.34025 11.32813,123.35937 3.3007,95.04777 12.94161,201.4924 9.48047,272.82422 -0.99903,20.58928 -16.84175,43.37188 -34.99024,62.9707 -19.84274,-5.76347 -35.52504,-11.32031 -53.68945,-14.84179 -53.80291,-10.43062 -68.03508,0.37486 -87.52735,8.9121 -2.37961,-25.63151 7.95908,-79.99894 12.65626,-148.50586 4.0371,-58.87986 -4.54408,-134.81776 -4.21485,-192.42578 0.0678,-11.86803 -0.57642,-24.11382 3.06641,-38.56054 0.98853,-3.92034 42.47504,-67.65027 42.43554,-67.66992 0,-10e-6 -0.40499,-5.97742 5.04102,-13.94141 6.57175,-9.61023 10.47851,-26.05832 10.24414,-27.45899 -4.95459,4.46675 -13.82126,12.53061 -23.12695,21.23829 -5.17351,5.30881 -4.23747,7.48306 -20.83789,19.72265 -14.30054,14.21808 -38.95172,22.74924 -39.83594,18.26953 C 223.53265,124.23716 174.54763,1.3438296 194.70508,0 h -32.10547 c 0,0 3.57798,52.457957 7.58984,71.890625 5.59823,27.11675 33.18531,99.751745 39.69532,182.931645 3.11872,39.84862 10.94845,105.62976 12.1914,141.42187 3.30072,95.04779 -21.77714,128.19943 -25.23828,199.53125 -0.84845,17.4859 -6.37807,41.37884 -13.16797,64.96875 -39.61275,-6.50783 -54.99746,-23.38849 -91.203797,-27.97261 -26.915631,-3.40781 -61.767001,-4.38616 -92.40948236,4.80658 l -2e-8,156.12306 H 1122.5195 V 637.57812 c 0,0 -20.2162,4.65236 -51.3691,9.08399 0.6092,-18.63764 1.1724,-40.49551 1.6328,-66.67383 C 1074.5184,481.32024 1030.2129,0 1030.2129,0 h -26.1074 c 0,0 -2.7466,45.151558 -1.961,75.183594 1.54,58.866936 9.333,187.789476 13.2578,300.808596 3.3008,95.04778 11.51,145.55685 8.0489,216.88867 -0.4146,8.54306 -2.2985,18.723 -5.0957,29.68555 C 1006.2314,565.40858 992.29857,495.03788 990.96484,467.55078 987.5037,396.21896 994.94939,431.35263 976.65625,338.02344 952.61347,215.36032 948.57332,160.29957 938.74609,102.23828 933.55442,71.56466 906.53679,-2.0189492 903.17188,0 Z M 462.60938,0 h 0.19726 c -0.0186,-0.08005984 -0.0958,-0.06674323 -0.19726,0 z"
       transform="scale(0.26458333)"
       id="rect928"
       inkscape:connector-curvature="0"
       sodipodi:nodetypes="sccscsscscsccssscccscccscccccsscscssccscccsccsssscscccccscccsccsssccccc" />
  </g>
</svg>
