<?xml version="1.0" encoding="UTF-8" standalone="no"?>
<!-- Created with Inkscape (http://www.inkscape.org/) -->

<svg
   xmlns:dc="http://purl.org/dc/elements/1.1/"
   xmlns:cc="http://creativecommons.org/ns#"
   xmlns:rdf="http://www.w3.org/1999/02/22-rdf-syntax-ns#"
   xmlns:svg="http://www.w3.org/2000/svg"
   xmlns="http://www.w3.org/2000/svg"
   xmlns:sodipodi="http://sodipodi.sourceforge.net/DTD/sodipodi-0.dtd"
   xmlns:inkscape="http://www.inkscape.org/namespaces/inkscape"
   width="297mm"
   height="210mm"
   viewBox="0 0 297 210"
   version="1.1"
   id="svg8"
   inkscape:version="0.92.4 (5da689c313, 2019-01-14)"
   sodipodi:docname="bg-layer-4.svg">
  <defs
     id="defs2" />
  <sodipodi:namedview
     id="base"
     pagecolor="#ffffff"
     bordercolor="#666666"
     borderopacity="1.0"
     inkscape:pageopacity="0.0"
     inkscape:pageshadow="2"
     inkscape:zoom="1.0369147"
     inkscape:cx="561.25984"
     inkscape:cy="396.85039"
     inkscape:document-units="mm"
     inkscape:current-layer="layer1"
     showgrid="false"
     inkscape:window-width="1920"
     inkscape:window-height="1046"
     inkscape:window-x="-11"
     inkscape:window-y="-11"
     inkscape:window-maximized="1"
     inkscape:snap-page="true"
     inkscape:snap-global="true" />
  <metadata
     id="metadata5">
    <rdf:RDF>
      <cc:Work
         rdf:about="">
        <dc:format>image/svg+xml</dc:format>
        <dc:type
           rdf:resource="http://purl.org/dc/dcmitype/StillImage" />
        <dc:title />
      </cc:Work>
    </rdf:RDF>
  </metadata>
  <g
     inkscape:label="Layer 1"
     inkscape:groupmode="layer"
     id="layer1"
     transform="translate(0,-87)"
     style="display:inline">
    <path
       style="opacity:1;vector-effect:none;fill:#3b595d;fill-opacity:1;stroke:none;stroke-width:14.2638979;stroke-linecap:round;stroke-linejoin:miter;stroke-miterlimit:4;stroke-dasharray:none;stroke-dashoffset:0;stroke-opacity:1;paint-order:stroke fill markers"
       d="m 332.71875,-0.96484375 -24.58984,0.95703125 c 0,0 -49.36719,62.8867135 -56.20899,81.7929685 -9.59781,26.522074 -63.92278,81.502044 -98.20312,114.421874 -22.18797,13.48139 -28.34037,33.45336 -50.60352,-5.29492 L 0,35.683594 c 5.5152725,25.097501 9.4069562,50.826397 9.1617952,78.164066 6.8850058,3.78342 54.3615798,77.64709 52.1194548,88.86132 14.548343,38.98984 8.815041,86.12495 8.15625,120.36524 -0.186618,9.69917 3.491164,29.67485 3.541016,40.51367 0.660189,143.52699 -3.741807,244.22658 -39.259766,307.91797 -1.72666,3.09629 -6.206043,5.58478 -13.063212,9.31932 C 3.7108029,689.77079 -2.2368856,682.03129 0,682.96289 v 110.73828 h 1122.5195 v -78.78906 -32.70307 c -3.6985,0.27323 -2.7773,-14.79765 -2.7726,-23.33026 -2.2252,1.25309 -9.6275,8.57561 -13.0506,21.44839 2.4708,-17.17224 -0.7577,-28.37473 -11.3174,-43.40529 1.5982,11.42164 1.0496,21.34133 -1.9121,31.79882 -7.7658,-16.6656 -15.7695,-27.94049 -31.168,-39.69531 15.4254,20.38878 19.48,36.88309 15.7969,52.39453 -7.5374,-24.93997 -15.4311,-26.09689 -18.7324,-34.96094 -8.7562,13.27389 -5.6103,21.60446 -6.3164,32.10157 -1.0646,-2.00474 -1.7916,-3.36693 -3.2012,-6.04102 -2.8552,-5.41655 -6.4563,-12.30756 -10.9648,-21.08789 -0.1391,10.9683 -0.6345,18.27189 -2.2852,24.14063 -2.8536,-14.21348 -3.1688,-21.02267 -15.8457,-33.96094 1.5231,21.60143 -2.7592,33.10411 -8.1836,42.92578 -1.5864,-2.7631 -2.7873,-8.76519 -4.1172,-23.79883 -13.20908,18.38131 -12.91783,23.6588 -14.50584,30.55469 l -0.34375,0.008 c -2.90027,-11.91014 6.84689,-18.08634 -0.34961,-43.65625 -2.18551,12.30841 -5.61171,20.76756 -9.51562,27.21094 -4.32284,-24.3642 -3.37617,-33.1093 -3.47852,-41.65039 -10.09274,5.54629 -11.77229,17.12468 -14.94336,31.5625 -3.30415,-11.70824 -7.80035,-28.34616 -13.5957,-54.49024 -19.62637,-88.53894 -27.44147,-45.29565 -24.21485,-122.97265 0.82825,-18.70239 3.16581,-24.89496 7.64258,-46.50781 C 961.30049,336.57043 1020.6822,283.66906 1042.0703,166.38477 1046.303,143.17446 1098.3176,-1.6463773 1086.793,0 h -20.7266 c -0.2178,0.03559559 -11.0628,53.17204 -26.2617,86.646484 -9.7254,21.419416 -16.5642,30.067466 -30.6758,7.714844 C 993.02147,68.847325 969.85783,26.453223 961.40234,0 H 931.35156 C 946.3098,72.821783 1013.7,102.16545 987.01172,227.29688 975.19971,282.67882 934.75614,363.99647 903.93164,393.59766 870.66534,352.69451 926.49852,245.98721 862.98242,149.39258 830.80364,100.45548 770.49023,0 770.49023,0 h -36.6914 c 6.88501,3.7834205 132.60001,188.07855 122.11133,259.67773 -21.00628,143.3957 -7.50675,125.69466 8.11914,308.54688 4.65727,54.49898 12.17088,99.17193 23.24218,125.40234 l -4.05859,0.0879 c -2.06508,-6.04335 -5.5673,-13.4403 -10.99609,-22.68554 -6.36541,17.81389 -5.74134,11.79446 -7.0918,16.37695 -4.8387,-24.73697 -3.94889,-15.85819 -6.11328,-26.89844 -2.06225,6.06521 -10.47979,16.05383 -8.00977,33.91235 v 0 c -6.60594,-15.89188 1.68622,-27.25368 -20.42187,-52.45898 6.9511,19.83602 4.99512,26.22109 1.3125,41.73047 -3.68453,-21.75834 -3.79994,-16.51467 -13.81446,-25.94336 0.69037,16.00728 -0.67045,16.14065 -7.40624,26.63867 -3.22111,-6.06546 -3.88219,-4.45189 -10.61719,-17.56836 -0.0793,6.24918 -2.93147,8.27964 -5.67969,9.9668 -0.93305,-7.0701 0.23078,-17.33868 -7.25781,-25.79883 -3.05536,13.86852 -7.91733,28.14735 -12.38672,39.22461 -0.21933,-13.60286 -10.34323,-31.48131 -17.67578,-38.67774 0.6354,20.59495 -5.14969,29.50282 -9.64649,35.54883 -11.28777,-5.07796 -4.24634,-14.67318 -11.29101,-19.95115 -2.8335,5.16377 -6.3812,10.48002 -8.93164,16.00976 -0.6709,-12.54889 -13.47217,-17.19047 -18.27344,-23.89062 -0.63425,15.74138 -2.07902,24.77195 -4.32422,34.25391 -0.46628,-0.0252 -0.92673,-0.0605 -1.37891,-0.11133 -2.24922,-5.15867 -4.09763,-8.80314 -4.85156,-9.11524 -17.16669,-6.44655 -22.50001,-8.92796 -32.63281,-12.79101 -9.1697,-2.57469 -14.00498,-0.95076 -17.2793,0.25 -28.59946,10.48788 -47.96653,5.16167 -52.30664,-14.79688 -25.61374,-28.08434 -28.0166,-65.94628 -27.83594,-110.36718 0.0384,-9.43756 0.60421,-67.96628 0.56641,-79.16211 L 568.38477,344.59961 C 567.15419,335.57255 568.20017,314.79713 567.18359,307 555.70581,218.96615 547.92608,205.66605 553.79297,91.792969 559.42053,73.994569 560.44922,0 560.44922,0 h -74.55664 c -11.49695,15.81524 9.23963,128.39611 -5.47656,161.49219 0.70272,33.46533 5.7015,39.51655 8.20703,76.16992 7.02867,102.82322 14.35343,152.59652 5.90429,222.94336 l -80.8789,-96.36133 20.30078,64.36328 c 6.88501,3.78342 34.04186,42.98719 40.98047,76.66406 12.79438,62.09802 26.15715,16.28785 3.5332,161.44922 -0.2956,1.89668 -3.91164,9.61068 -11.79101,11.56836 -13.00067,3.23014 -31.80659,6.34421 -48.22852,3.89844 -4.05845,-0.60444 -7.14156,1.36302 -9.59961,4.82227 -0.88533,-6.11884 -6.82637,-13.15686 -9.66797,-18.5293 -3.1273,6.37199 -3.32369,16.20743 -7.36682,16.2907 -2.80318,-2.42976 -3.48357,-10.63252 -3.87922,-10.14218 -3.254,1.56185 -5.2548,3.02311 -5.80677,4.65259 -0.0439,-2.2036 -1.7096,-5.36625 -2.4218,-12.40074 -4.14091,6.59976 -11.56814,15.35034 -10.01172,20.13867 -5.09171,-15.31629 -1.42583,-15.55744 -6.36718,-29.04883 -13.82862,15.94953 -6.03871,9.91053 -21.10743,22.68946 0.51829,-9.42993 2.24309,-7.75329 -5.85742,-21.36133 -0.51511,10.46199 -0.43022,8.90624 -7.16601,19.40429 -3.22111,-6.06549 -0.0226,-20.84446 -6.75782,-33.96093 -0.10943,8.63005 -9.82231,17.43752 -14.77148,23.66406 0.90003,-8.22976 -3.80347,-25.88774 -13.35742,-35.63867 -3.0713,22.56582 -3.5475,27.19005 -8.7461,37.01172 -6.46981,-19.15335 -14.6471,-16.94948 -16.97656,-28.02735 0.9423,30.54263 -1.4609,26.13404 -3.54492,33.9043 0,0 1.23,-13.78845 -15.70508,-10.34961 3.96704,9.37228 -5.033,17.61096 -1.17383,23.46875 -5.69705,-6.67243 -10.14731,-9.50678 -14.05078,-23.3418 -3.0261,-0.43231 -8.28522,10.92948 -8.99219,14.39649 -7.59797,-5.76767 -10.11426,-26.55172 -8.04882,-33.4961 -7.93603,9.88025 -10.71071,35.83172 -10.9961,46.3086 -0.0285,-0.003 -0.0574,-0.007 -0.0859,-0.01 -0.44122,-8.28527 -2.75163,-30.16303 -13.39844,-30.30469 2.4924,9.65408 -4.96846,12.48622 -9.85742,17.29102 -0.37913,-34.59411 -15.78258,-50.4555 -15.50782,-118.01172 0.0384,-9.43755 9.90343,-33.46182 7.33594,-44.35937 l -9.84961,-41.80664 c 0,0 -14.77474,-80.749 -14.98828,-145.625 -0.0342,-10.3982 8.1252,-37.06426 8.88086,-50.11524 2.18856,-37.79879 93.36816,-105.15516 102.35937,-133.59179 5.62758,-17.79841 71.75977,-147.07422375 71.75977,-147.07422375 z M 830.58008,641.96094 c -9.3e-4,-0.003 -10e-4,-0.005 -0.002,-0.008 l -0.002,0.002 c 0.002,0.002 0.002,0.004 0.004,0.006 z"
       id="rect815"
       inkscape:connector-curvature="0"
       sodipodi:nodetypes="ccscccccsscccccccccccccccccccccccccccscccccssccscsccsscccccccccccccccccccccccccccccsccccscccsccsccccccccccccccccccccccccccsccssscccccc"
       transform="matrix(0.26458333,0,0,0.26458333,0,87)" />
  </g>
</svg>
