<?xml version="1.0" encoding="UTF-8" standalone="no"?>
<!-- Created with Inkscape (http://www.inkscape.org/) -->

<svg
   xmlns:dc="http://purl.org/dc/elements/1.1/"
   xmlns:cc="http://creativecommons.org/ns#"
   xmlns:rdf="http://www.w3.org/1999/02/22-rdf-syntax-ns#"
   xmlns:svg="http://www.w3.org/2000/svg"
   xmlns="http://www.w3.org/2000/svg"
   xmlns:sodipodi="http://sodipodi.sourceforge.net/DTD/sodipodi-0.dtd"
   xmlns:inkscape="http://www.inkscape.org/namespaces/inkscape"
   width="297mm"
   height="210mm"
   viewBox="0 0 297 210"
   version="1.1"
   id="svg8"
   inkscape:version="0.92.4 (5da689c313, 2019-01-14)"
   sodipodi:docname="bg-layer-2.svg">
  <defs
     id="defs2" />
  <sodipodi:namedview
     id="base"
     pagecolor="#ffffff"
     bordercolor="#666666"
     borderopacity="1.0"
     inkscape:pageopacity="0.0"
     inkscape:pageshadow="2"
     inkscape:zoom="1.0369147"
     inkscape:cx="561.25984"
     inkscape:cy="396.85039"
     inkscape:document-units="mm"
     inkscape:current-layer="layer3"
     showgrid="false"
     inkscape:window-width="1920"
     inkscape:window-height="1046"
     inkscape:window-x="-11"
     inkscape:window-y="-11"
     inkscape:window-maximized="1"
     inkscape:snap-page="true"
     inkscape:snap-global="true" />
  <metadata
     id="metadata5">
    <rdf:RDF>
      <cc:Work
         rdf:about="">
        <dc:format>image/svg+xml</dc:format>
        <dc:type
           rdf:resource="http://purl.org/dc/dcmitype/StillImage" />
        <dc:title />
      </cc:Work>
    </rdf:RDF>
  </metadata>
  <g
     inkscape:groupmode="layer"
     id="layer3"
     inkscape:label="Layer 1"
     style="display:inline">
    <path
       style="opacity:1;vector-effect:none;fill:#aacace;fill-opacity:1;stroke:none;stroke-width:17.35286903;stroke-linecap:round;stroke-linejoin:miter;stroke-miterlimit:4;stroke-dasharray:none;stroke-dashoffset:0;stroke-opacity:1;paint-order:stroke fill markers"
       d="M 61.501953,-0.359375 C 61.248299,-0.36285365 60.943801,-0.24358148 60.585938,0 h 1.513671 C 61.945037,-0.23254017 61.748362,-0.35599572 61.501953,-0.359375 Z M 62.099609,0 c 4.778086,7.1881824 -32.78656,122.91908 -18.02539,289.18555 7.458444,84.01043 -15.617422,200.14243 -14.72461,232.96093 0.514284,18.90433 0.636344,36.7159 0.488282,53.33399 C 26.420998,578.94606 1.1908421,582.99506 0,583.68125 L 0.05664062,793.70117 H 1122.5195 V 583.68164 c -10.8094,2.41964 -21.444,4.47101 -31.9023,6.19922 -0.2504,-12.9411 -0.2932,-26.80266 -0.057,-41.71875 C 1092.1252,449.49403 1116.875,0 1116.875,0 h -19.9336 c 0,0 -8.2084,76.975777 -7.5,107.00781 1.3886,58.86693 -13.2887,190.68433 -14.0976,211.1211 -3.7062,93.62475 -25.9159,205.84269 -29.5508,277.35351 -86.88405,7.38705 -159.02184,-6.41123 -210.78128,-17.4707 -0.10281,-0.009 -0.20388,-0.0149 -0.30664,-0.0234 -0.26375,-2.88649 -0.45829,-5.65587 -0.54297,-8.25195 -2.32656,-71.33182 0.9406,-82.59388 -1.86328,-177.60742 -0.6031,-20.43678 -7.51174,-198.25417 -6.47656,-257.1211 C 826.35038,104.97578 810.82031,0 810.82031,0 h -14.85937 c 0,0 7.52629,155.11296 7.14062,264.25195 -0.22941,65.02501 -13.24208,86.98209 -12.80664,123.82032 0.24681,20.87569 4.71221,42.84344 5.28711,65.16601 1.13012,43.88307 2.6625,85.06379 3.87891,123.14063 -37.61335,-0.31544 -71.98665,3.89671 -103.91992,10.13086 -8.82486,-47.96374 -17.00909,-97.06864 -17.96875,-118.95899 -3.12719,-71.33182 19.21556,-42.95012 2.6875,-136.2793 -21.72291,-122.66311 4.18761,-170.97191 -4.69141,-229.0332 C 670.87763,71.564656 677.18478,-2.0189495 674.14453,0 h -30.94726 c 8.57885,7.0398965 -16.66631,146.11272 0.39453,314.28906 8.52249,84.01043 -8.75906,191.41612 -1.6836,223.30664 4.97315,22.41504 9.52022,41.50707 13.68555,57.89649 -16.32493,4.08835 -32.02231,8.43862 -47.23242,12.67773 -0.0869,-2.18965 -0.16506,-4.39306 -0.25586,-6.56836 C 595.56912,474.92835 598.72438,535.8088 607.02539,412.77539 602.55886,382.10177 607.73673,-2.0189495 604.8418,0 h -31.06446 c 14.2718,8.7899853 -1.10456,121.90915 1.97266,170.59375 16.05727,100.87822 -9.70279,310.93504 -5.66602,447.9668 -35.96848,9.25398 -69.58819,15.5787 -102.8125,12.6914 -30.00338,-2.6074 -50.17545,-11.03232 -68.12304,-20.28515 0.24807,-5.6653 0.45514,-11.40587 0.27929,-18.08594 -1.87744,-71.33182 8.32555,-218.55071 7.53321,-313.58789 C 406.75344,254.39088 399.06873,81.36447 397.875,54.962891 396.51838,24.958486 407.98437,0 407.98438,0 h -19.99219 c -15.83818,78.44714 -8.77364,136.47261 -4.28125,225.74219 3.02558,60.12301 -14.45606,135.76126 -12.52344,202.42187 1.0918,52.53553 -3.84396,113.41274 -6.80078,164.84571 -4.77379,-2.14177 -9.74331,-4.11041 -15.02539,-5.83008 0.0181,-2.29073 0.0105,-4.56898 -0.0625,-6.83594 -2.29856,-71.33182 -8.60296,-118.98256 -11.37305,-213.99609 -0.59582,-20.43677 10.84531,-66.15205 6.26758,-104.07032 C 339.96785,227.27684 342.58751,-2.9250735 329.96094,0 h -23.97852 c 2.40131,2.629712 5.4704,108.67154 -2.73633,237.21484 -7.9274,124.16821 -8.38172,179.49506 -3.42773,221.25782 4.64155,39.12887 4.78578,81.70858 1.98828,121.99023 -18.64957,0.24938 -41.14416,3.2832 -69.36719,10.3418 -3.40178,-13.48066 -7.55298,-27.70926 -12.61133,-42.64258 C 192.602,467.78479 239.17505,5.1802689 245.42188,0 H 226.0332 c -16.67456,-2.9250735 -11.01748,61.399883 -16.59765,96.400391 -6.04532,37.918259 -35.76199,220.578849 -36.54883,241.015629 -3.65815,95.01353 7.9671,141.69943 4.93164,213.03125 -0.52413,12.3168 1.95344,32.95434 3.08398,55.67773 -12.65877,4.27066 -26.1809,9.1418 -40.69726,14.70117 -14.52331,5.56203 -38.68303,-3.18045 -62.888674,-16.00195 C 75.695724,570.50709 78.961053,536.2565 80.970703,491.59375 85.106081,399.68841 85.451819,270.26796 69.876953,187.06641 65.771865,156.39278 91.797374,-2.0189495 89.136719,0 Z M 643.19727,0 c -0.4594,-0.37698678 -1.01068,-0.39618581 -1.67579,0 z"
       id="rect928-6"
       transform="scale(0.26458333)"
       inkscape:connector-curvature="0"
       sodipodi:nodetypes="sccscsscccccccccscccccsscccccccsscccssccccccccscccsccscccsssccssccsccssscscscccccc" />
  </g>
</svg>
